HIERARCHY
ROOT Hips
{
    OFFSET   0.000000   0.000000   0.000000
    CHANNELS 6 Xposition Yposition Zposition Zrotation Xrotation Yrotation
    JOINT Chest
    {
        OFFSET   0.000000   8.007230   0.000000
        CHANNELS 3 Zrotation Xrotation Yrotation
        JOINT Chest2
        {
            OFFSET   0.000000  22.077100   0.000000
            CHANNELS 3 Zrotation Xrotation Yrotation
            JOINT Neck
            {
                OFFSET   0.000000  23.255100   0.000000
                CHANNELS 3 Zrotation Xrotation Yrotation
                JOINT Head
                {
                    OFFSET   0.000000  14.370100   1.956600
                    CHANNELS 3 Zrotation Xrotation Yrotation
                    End Site
                    {
                        OFFSET   0.000000  19.566000   0.000000
                    }
                }
            }
            JOINT LeftCollar
            {
                OFFSET   3.911900  19.017000  -0.467063
                CHANNELS 3 Zrotation Xrotation Yrotation
                JOINT LeftShoulder
                {
                    OFFSET  10.383700   0.000000   0.000000
                    CHANNELS 3 Zrotation Xrotation Yrotation
                    JOINT LeftElbow
                    {
                        OFFSET  26.662100   0.001193   0.000980
                        CHANNELS 3 Zrotation Xrotation Yrotation
                        JOINT LeftWrist
                        {
                            OFFSET  28.869000  -0.000059  -0.000082
                            CHANNELS 3 Zrotation Xrotation Yrotation
                            JOINT LeftFinger0
                            {
                                OFFSET   2.044650  -2.323450   3.252850
                                CHANNELS 3 Zrotation Xrotation Yrotation
                                JOINT LeftFinger01
                                {
                                    OFFSET   3.088130   0.000000   0.000000
                                    CHANNELS 3 Zrotation Xrotation Yrotation
                                    JOINT LeftFinger02
                                    {
                                        OFFSET   2.639460   0.000000   0.000000
                                        CHANNELS 3 Zrotation Xrotation Yrotation
                                        End Site
                                        {
                                            OFFSET   2.582190   0.000000   0.000000
                                        }
                                    }
                                }
                            }
                            JOINT LeftFinger1
                            {
                                OFFSET   8.364480   0.000000   3.252850
                                CHANNELS 3 Zrotation Xrotation Yrotation
                                JOINT LeftFinger11
                                {
                                    OFFSET   4.646930   0.000000   0.000000
                                    CHANNELS 3 Zrotation Xrotation Yrotation
                                    JOINT LeftFinger12
                                    {
                                        OFFSET   2.323470   0.000000   0.000000
                                        CHANNELS 3 Zrotation Xrotation Yrotation
                                        End Site
                                        {
                                            OFFSET   2.273050   0.000000   0.000000
                                        }
                                    }
                                }
                            }
                            JOINT LeftFinger2
                            {
                                OFFSET   8.364490   0.000016   1.078090
                                CHANNELS 3 Zrotation Xrotation Yrotation
                                JOINT LeftFinger21
                                {
                                    OFFSET   5.111610   0.000000   0.000000
                                    CHANNELS 3 Zrotation Xrotation Yrotation
                                    JOINT LeftFinger22
                                    {
                                        OFFSET   2.788150   0.000016   0.000000
                                        CHANNELS 3 Zrotation Xrotation Yrotation
                                        End Site
                                        {
                                            OFFSET   2.727660   0.000000   0.000000
                                        }
                                    }
                                }
                            }
                            JOINT LeftFinger3
                            {
                                OFFSET   7.899780   0.000015  -1.078090
                                CHANNELS 3 Zrotation Xrotation Yrotation
                                JOINT LeftFinger31
                                {
                                    OFFSET   4.646930   0.000000   0.000000
                                    CHANNELS 3 Zrotation Xrotation Yrotation
                                    JOINT LeftFinger32
                                    {
                                        OFFSET   2.323470   0.000000   0.000000
                                        CHANNELS 3 Zrotation Xrotation Yrotation
                                        End Site
                                        {
                                            OFFSET   2.273050   0.000000   0.000000
                                        }
                                    }
                                }
                            }
                            JOINT LeftFinger4
                            {
                                OFFSET   7.435090   0.000000  -3.252850
                                CHANNELS 3 Zrotation Xrotation Yrotation
                                JOINT LeftFinger41
                                {
                                    OFFSET   3.717550   0.000000   0.000000
                                    CHANNELS 3 Zrotation Xrotation Yrotation
                                    JOINT LeftFinger42
                                    {
                                        OFFSET   1.858770   0.000000   0.000000
                                        CHANNELS 3 Zrotation Xrotation Yrotation
                                        End Site
                                        {
                                            OFFSET   1.818440   0.000000   0.000000
                                        }
                                    }
                                }
                            }
                        }
                    }
                }
            }
            JOINT RightCollar
            {
                OFFSET  -3.911910  19.017000  -0.467062
                CHANNELS 3 Zrotation Xrotation Yrotation
                JOINT RightShoulder
                {
                    OFFSET -10.383700   0.000014   0.000000
                    CHANNELS 3 Zrotation Xrotation Yrotation
                    JOINT RightElbow
                    {
                        OFFSET -26.662100   0.001225   0.001091
                        CHANNELS 3 Zrotation Xrotation Yrotation
                        JOINT RightWrist
                        {
                            OFFSET -28.869000  -0.000020  -0.000085
                            CHANNELS 3 Zrotation Xrotation Yrotation
                            JOINT RightFinger0
                            {
                                OFFSET  -2.044650  -2.323490   3.252850
                                CHANNELS 3 Zrotation Xrotation Yrotation
                                JOINT RightFinger01
                                {
                                    OFFSET  -3.088130   0.000000   0.000000
                                    CHANNELS 3 Zrotation Xrotation Yrotation
                                    JOINT RightFinger02
                                    {
                                        OFFSET  -2.639460   0.000000   0.000000
                                        CHANNELS 3 Zrotation Xrotation Yrotation
                                        End Site
                                        {
                                            OFFSET  -2.582190   0.000000   0.000000
                                        }
                                    }
                                }
                            }
                            JOINT RightFinger1
                            {
                                OFFSET  -8.364480   0.000000   3.252850
                                CHANNELS 3 Zrotation Xrotation Yrotation
                                JOINT RightFinger11
                                {
                                    OFFSET  -4.646930   0.000000   0.000000
                                    CHANNELS 3 Zrotation Xrotation Yrotation
                                    JOINT RightFinger12
                                    {
                                        OFFSET  -2.323470   0.000000   0.000000
                                        CHANNELS 3 Zrotation Xrotation Yrotation
                                        End Site
                                        {
                                            OFFSET  -2.273050   0.000000   0.000000
                                        }
                                    }
                                }
                            }
                            JOINT RightFinger2
                            {
                                OFFSET  -8.364480   0.000000   1.078090
                                CHANNELS 3 Zrotation Xrotation Yrotation
                                JOINT RightFinger21
                                {
                                    OFFSET  -5.111620   0.000000   0.000000
                                    CHANNELS 3 Zrotation Xrotation Yrotation
                                    JOINT RightFinger22
                                    {
                                        OFFSET  -2.788160   0.000000   0.000000
                                        CHANNELS 3 Zrotation Xrotation Yrotation
                                        End Site
                                        {
                                            OFFSET  -2.727660   0.000000   0.000000
                                        }
                                    }
                                }
                            }
                            JOINT RightFinger3
                            {
                                OFFSET  -7.899780   0.000000  -1.078090
                                CHANNELS 3 Zrotation Xrotation Yrotation
                                JOINT RightFinger31
                                {
                                    OFFSET  -4.646930   0.000000   0.000000
                                    CHANNELS 3 Zrotation Xrotation Yrotation
                                    JOINT RightFinger32
                                    {
                                        OFFSET  -2.323470   0.000000   0.000000
                                        CHANNELS 3 Zrotation Xrotation Yrotation
                                        End Site
                                        {
                                            OFFSET  -2.273050   0.000000   0.000000
                                        }
                                    }
                                }
                            }
                            JOINT RightFinger4
                            {
                                OFFSET  -7.435090   0.000000  -3.252850
                                CHANNELS 3 Zrotation Xrotation Yrotation
                                JOINT RightFinger41
                                {
                                    OFFSET  -3.717550   0.000000   0.000000
                                    CHANNELS 3 Zrotation Xrotation Yrotation
                                    JOINT RightFinger42
                                    {
                                        OFFSET  -1.858760   0.000000   0.000000
                                        CHANNELS 3 Zrotation Xrotation Yrotation
                                        End Site
                                        {
                                            OFFSET  -1.818440   0.000000   0.000000
                                        }
                                    }
                                }
                            }
                        }
                    }
                }
            }
        }
    }
    JOINT LeftHip
    {
        OFFSET   9.783030   0.000000   0.000000
        CHANNELS 3 Zrotation Xrotation Yrotation
        JOINT LeftKnee
        {
            OFFSET   0.000063 -41.789100   0.000608
            CHANNELS 3 Zrotation Xrotation Yrotation
            JOINT LeftAnkle
            {
                OFFSET   0.000048 -41.133200  -0.000184
                CHANNELS 3 Zrotation Xrotation Yrotation
                JOINT LeftToe
                {
                    OFFSET   0.000000  -6.358960  14.674500
                    CHANNELS 3 Zrotation Xrotation Yrotation
                    End Site
                    {
                        OFFSET   0.000000   0.000000   3.913200
                    }
                }
            }
        }
    }
    JOINT RightHip
    {
        OFFSET  -9.783030   0.000000   0.000000
        CHANNELS 3 Zrotation Xrotation Yrotation
        JOINT RightKnee
        {
            OFFSET   0.000071 -41.789100   0.001239
            CHANNELS 3 Zrotation Xrotation Yrotation
            JOINT RightAnkle
            {
                OFFSET   0.000037 -41.133200  -0.000166
                CHANNELS 3 Zrotation Xrotation Yrotation
                JOINT RightToe
                {
                    OFFSET   0.000000  -6.358960  14.674500
                    CHANNELS 3 Zrotation Xrotation Yrotation
                    End Site
                    {
                        OFFSET   0.000000   0.000000   3.913200
                    }
                }
            }
        }
    }
}
MOTION
Frames: 5
Frame Time:   0.016667
  0.802208  89.977700   0.824053  -1.435000  -2.401990  -4.675090  -0.263362   2.241600  -0.368918  -0.512846   4.484840  -0.728354   2.439490   0.041185  -0.006404   4.004200   0.082685   3.113730  -0.840698  -1.769520   4.419760 -72.342900  21.213100   2.349890  -3.998360  -6.326150 -14.569700  14.048500  -1.872540  11.917800  40.922000  31.436900 -69.634600 -24.096300  -0.000408   0.004953  -7.048170   0.007596  -0.001792 -31.466200   9.004620 -14.326900 -26.674200  -0.000318  -0.002657 -18.683800  -0.014211   0.003353 -28.587100   3.226880  -5.916720 -40.630100  -0.012272  -0.002002 -27.059600  -0.002333   0.000681 -27.414100   3.113250  -5.982440 -29.565800  -0.000413  -0.001698 -19.690800  -0.007543  -0.000843 -29.943800   1.251340  -2.179590 -44.951400  -0.009394  -0.002951 -29.937600   0.001521  -0.001942   8.867080   2.042810   4.156900  70.489500   8.546140  -1.965890   2.755880  -7.896650   8.500280 -13.733300 -24.578900   1.649540 -37.101100  30.173600  69.730900  28.153400  -0.001722  -0.001090   9.076700  -0.000129   0.000960  27.056600   1.126840   2.205790  22.155500  -0.002800   0.013108  15.508900   0.010579   0.008804  24.125100   0.078160   0.174737  24.125600  -0.004852   0.001752  16.067700   0.004378   0.001033  26.129800  -1.265210  -2.577340  26.158400   0.001939   0.000511  17.429100   0.001180   0.001704  32.524000  -2.923420  -4.572920  48.961300   0.001910   0.000266  32.608200   0.001742   0.002355   0.660891   2.590930   2.076200   1.365520   1.067260  13.252000  -5.691370  -3.373280   6.789710  -0.000000   0.000000  -0.000000   2.542700  -0.529854  -5.524910  -2.109560   5.762980  -5.249860  -7.842620  -0.074590   2.529180   0.000000   0.000000   0.000000
  0.809579  89.977900   0.838276  -1.437600  -2.412150  -4.685160  -0.263474   2.249030  -0.367801  -0.513059   4.499670  -0.726069   2.435810   0.049735  -0.006410   3.999680   0.099983   3.128750  -0.851171  -1.777260   4.435240 -72.341200  21.243300   2.339370  -3.996760  -6.321470 -14.569600  14.049700  -1.872730  11.909100  40.923000  31.438300 -69.637500 -24.089400  -0.000409   0.004961  -7.044760   0.007592  -0.001799 -31.472700   9.004400 -14.332400 -26.679200  -0.000314  -0.002660 -18.684500  -0.014217   0.003348 -28.587300   3.226860  -5.915710 -40.668700  -0.012272  -0.002001 -27.085400  -0.002331   0.000684 -27.414200   3.113260  -5.981280 -29.575500  -0.000405  -0.001684 -19.697300  -0.007539  -0.000839 -29.955300   1.251350  -2.174300 -44.968600  -0.009390  -0.002947 -29.949100   0.001527  -0.001931   8.866640   2.041580   4.171500  70.488100   8.610690  -1.942940   2.756040  -7.847370   8.506120 -13.732200 -24.557500   1.658610 -37.119800  30.226500  69.801600  28.142900  -0.001718  -0.001100   9.071480  -0.000132   0.000953  27.095100   1.154410   2.256190  22.188200  -0.002786   0.013113  15.531700   0.010585   0.008804  24.136000   0.089847   0.200850  24.136600  -0.004838   0.001734  16.075000   0.004369   0.001020  26.136300  -1.256780  -2.559450  26.163900   0.001932   0.000500  17.428900   0.001167   0.001679  32.536700  -2.904680  -4.541530  48.979600   0.001888   0.000260  32.620300   0.001722   0.002346   0.654705   2.593380   2.073980   1.364110   1.077490  13.256500  -5.680890  -3.377060   6.793720  -0.000000   0.000000  -0.000000   2.544640  -0.511923  -5.526710  -2.109140   5.764000  -5.255020  -7.842720  -0.074611   2.542090  -0.000000   0.000000   0.000000
  0.821983  89.978600   0.861627  -1.443100  -2.433620  -4.700400  -0.263649   2.265420  -0.366687  -0.513374   4.532440  -0.723802   2.425470   0.066085  -0.006432   3.984670   0.133014   3.165260  -0.873406  -1.795090   4.473410 -72.339200  21.310700   2.307370  -3.992130  -6.313790 -14.569400  14.054200  -1.872910  11.900300  40.933400  31.448600 -69.655200 -24.082600  -0.000415   0.004982  -7.041350   0.007583  -0.001806 -31.479300   9.004180 -14.338000 -26.684300  -0.000306  -0.002666 -18.685100  -0.014230   0.003336 -28.587600   3.226860  -5.912120 -40.707300  -0.012273  -0.001996 -27.111100  -0.002324   0.000694 -27.414400   3.113280  -5.977690 -29.585200  -0.000381  -0.001648 -19.703800  -0.007527  -0.000825 -29.966700   1.251350  -2.169010 -44.985700  -0.009377  -0.002941 -29.960500   0.001543  -0.001903   8.866180   2.033160   4.201750  70.485900   8.736690  -1.901620   2.790550  -7.778880   8.517370 -13.734600 -24.475100   1.692660 -37.172700  30.342400  69.935000  28.117600  -0.001709  -0.001118   9.058810  -0.000134   0.000935  27.178500   1.232250   2.399060  22.259000  -0.002755   0.013125  15.581300   0.010596   0.008807  24.167900   0.119848   0.267411  24.168700  -0.004805   0.001687  16.096300   0.004345   0.000990  26.144100  -1.232580  -2.509120  26.171600   0.001917   0.000476  17.428700   0.001135   0.001618  32.552800  -2.864850  -4.476710  48.997800   0.001835   0.000246  32.632500   0.001670   0.002323   0.644733   2.610520   2.069010   1.362630   1.087720  13.264300  -5.663760  -3.383950   6.801350  -0.000000   0.000000   0.000000   2.548310  -0.475905  -5.530570  -2.108430   5.765000  -5.263050  -7.842860  -0.074762   2.562250   0.000000   0.000000   0.000000
  0.832161  89.979800   0.879571  -1.450120  -2.459700  -4.709450  -0.263808   2.286100  -0.368528  -0.513654   4.573810  -0.727397   2.410570   0.083677  -0.006478   3.960420   0.168416   3.213220  -0.902351  -1.820450   4.524680 -72.342800  21.393100   2.257650  -3.976340  -6.306570 -14.565900  14.059300  -1.872530  11.907600  40.950300  31.483100 -69.679300 -24.096200  -0.000441   0.005019  -7.048150   0.007569  -0.001791 -31.479100   8.993580 -14.320700 -26.681900  -0.000295  -0.002672 -18.680700  -0.014242   0.003320 -28.588200   3.226920  -5.902790 -40.673000  -0.012282  -0.001989 -27.088200  -0.002313   0.000715 -27.404900   3.107300  -5.969080 -29.534300  -0.000340  -0.001592 -19.669900  -0.007506  -0.000800 -29.951400   1.253940  -2.174800 -44.962800  -0.009355  -0.002936 -29.945300   0.001567  -0.001857   8.865280   2.012040   4.239400  70.485500   8.867300  -1.868920   2.892850  -7.751320   8.533080 -13.834800 -24.320600   1.759740 -37.270000  30.500500  70.083200  28.068600  -0.001691  -0.001133   9.034290  -0.000125   0.000909  27.288000   1.377000   2.667060  22.353300  -0.002715   0.013145  15.647300   0.010610   0.008813  24.223400   0.171130   0.380699  24.224400  -0.004756   0.001618  16.133400   0.004309   0.000949  26.147800  -1.190070  -2.422580  26.173100   0.001895   0.000444  17.429200   0.001086   0.001534  32.551400  -2.811470  -4.393870  48.989400   0.001758   0.000226  32.627000   0.001590   0.002289   0.636237   2.672130   2.060210   1.361860   1.055900  13.271300  -5.650640  -3.390790   6.811840  -0.000000   0.000000   0.000000   2.548890  -0.434013  -5.537030  -2.107880   5.764080  -5.266780  -7.842890  -0.075346   2.575190  -0.000000   0.000000   0.000000
  0.842466  89.981200   0.897078  -1.458240  -2.492480  -4.716380  -0.263614   2.313290  -0.375074  -0.512680   4.628210  -0.740366   2.386220   0.103584  -0.006538   3.920230   0.208539   3.285630  -0.934701  -1.850180   4.601380 -72.361600  21.509800   2.177900  -3.945150  -6.302680 -14.550700  14.074600  -1.870120  11.923300  40.979500  31.551300 -69.717400 -24.119400  -0.000474   0.005064  -7.059720   0.007551  -0.001763 -31.473200   8.977650 -14.301000 -26.674200  -0.000280  -0.002679 -18.671900  -0.014259   0.003300 -28.588600   3.227000  -5.896040 -40.580900  -0.012294  -0.001979 -27.026900  -0.002299   0.000742 -27.382500   3.101310  -5.962900 -29.420100  -0.000286  -0.001519 -19.593800  -0.007479  -0.000768 -29.903700   1.261930  -2.192880 -44.891900  -0.009327  -0.002931 -29.898000   0.001598  -0.001800   8.859960   1.978780   4.282090  70.485500   9.037710  -1.818860   3.030820  -7.742970   8.543400 -14.066300 -24.091800   1.849030 -37.376100  30.678500  70.234100  28.034400  -0.001672  -0.001155   9.017200  -0.000110   0.000876  27.412600   1.528850   2.945700  22.461000  -0.002663   0.013168  15.722700   0.010628   0.008822  24.292700   0.224661   0.498327  24.294000  -0.004696   0.001529  16.179800   0.004264   0.000896  26.152000  -1.139070  -2.317860  26.175400   0.001865   0.000404  17.432800   0.001025   0.001427  32.550300  -2.754670  -4.305520  48.981100   0.001662   0.000199  32.621400   0.001490   0.002247   0.629405   2.742330   2.054170   1.357730   1.024100  13.277800  -5.638210  -3.398230   6.818720   0.000000   0.000000  -0.000000   2.546810  -0.385162  -5.541410  -2.107090   5.763140  -5.272820  -7.842890  -0.076230   2.587180  -0.000000   0.000000   0.000000
